<?xml version="1.0" encoding="utf-8"?>
<!-- Generator: Adobe Illustrator 24.0.1, SVG Export Plug-In . SVG Version: 6.00 Build 0)  -->
<svg version="1.1" id="图层_1" xmlns="http://www.w3.org/2000/svg" xmlns:xlink="http://www.w3.org/1999/xlink" x="0px" y="0px"
	 viewBox="0 0 1024 1024" style="enable-background:new 0 0 1024 1024;" xml:space="preserve">
<style type="text/css">
	.st0{stroke:#000000;stroke-width:17.5815;stroke-miterlimit:10;}
	.st1{fill:#FFFFFF;}
	.st2{fill:#606060;}
	.st3{fill:#FFF7EE;}
	.st4{fill:#000B17;}
	.st5{fill:#FFDB45;}
	.st6{opacity:0.1;fill:#231F20;}
	.st7{fill:#FF7058;}
	.st8{fill:#FFF7EE;stroke:#000B17;stroke-width:16;stroke-miterlimit:10;}
	.st9{fill:#40596B;}
	.st10{fill:#334A5E;}
	.st11{fill:#ACB3BA;}
	.st12{fill:#FFDB45;stroke:#000B17;stroke-width:16;stroke-miterlimit:10;}
	.st13{fill:#000B17;stroke:#000B17;stroke-width:16;stroke-miterlimit:10;}
	.st14{fill:#5C7BFF;stroke:#000B17;stroke-width:16;stroke-miterlimit:10;}
	.st15{fill:#FF6440;stroke:#000B17;stroke-width:16;stroke-miterlimit:10;}
	.st16{fill:#54C0EB;}
	.st17{fill:#84DBFF;}
	.st18{fill:#F1543F;}
	.st19{opacity:0.1;}
	.st20{fill:#231F20;}
	.st21{fill:#4CDBC4;}
	.st22{fill:#3DC9AE;}
	.st23{opacity:0.05;fill:#231F20;}
	.st24{fill:#55FFBA;stroke:#000B17;stroke-width:16;stroke-miterlimit:10;}
	.st25{opacity:0.01;}
	.st26{opacity:0.1;fill:#FFF7EE;stroke:#000B17;stroke-width:16;stroke-miterlimit:10;}
	.st27{fill:none;stroke:#231F20;stroke-width:0.8518;stroke-miterlimit:10;}
	.st28{opacity:0.1;fill:#40596B;}
	.st29{fill:#65C5B8;}
	.st30{fill:#4FBFA8;}
	.st31{fill:none;}
	.st32{fill:#55FFBA;}
	.st33{fill:#5C7BFF;}
	.st34{fill:#FF6440;}
</style>
<g>
	<g>
		<path class="st3" d="M873.36,386.53l-173,59.25c47.77-16.36,73.23-68.35,56.87-116.13l0,0c-16.36-47.77-68.35-73.23-116.13-56.87
			l150.34-51.49c47.77-16.36,73.23-68.35,56.87-116.13l0,0C831.96,57.39,779.97,31.93,732.2,48.3L192.61,233.11
			c-47.77,16.36-73.23,68.35-56.87,116.13l0,0c16.36,47.77,68.35,73.23,116.13,56.87L101.53,457.6
			c-47.77,16.36-73.23,68.35-56.87,116.13l0,0c16.36,47.77,68.35,73.23,116.13,56.87l173-59.25
			c-47.77,16.36-73.23,68.35-56.87,116.13l0,0c16.36,47.77,68.35,73.23,116.13,56.87l-119.45,40.91
			c-47.77,16.36-73.23,68.35-56.87,116.13l0,0c16.36,47.77,68.35,73.23,116.13,56.87l539.58-184.82
			c47.77-16.36,73.23-68.35,56.87-116.13l0,0c-16.36-47.77-68.35-73.23-116.13-56.87l119.45-40.91
			c47.77-16.36,73.23-68.35,56.87-116.13l0,0C973.12,395.63,921.13,370.17,873.36,386.53z"/>
	</g>
</g>
<g>
	<g>
		<path class="st4" d="M851.24,153.82c-21.5,0-39-17.5-39-39s17.5-39,39-39s39,17.5,39,39c0,4.42-3.58,8-8,8s-8-3.58-8-8
			c0-12.68-10.32-23-23-23s-23,10.32-23,23s10.32,23,23,23c4.42,0,8,3.58,8,8S855.66,153.82,851.24,153.82z"/>
	</g>
	<g>
		<circle class="st4" cx="202.5" cy="824.5" r="10.5"/>
	</g>
	<g>
		<circle class="st4" cx="102.24" cy="714.82" r="19"/>
	</g>
	<g>
		<g>
			<g>
				<path class="st4" d="M836.05,780.21c-3.96,0-7.16-3.21-7.16-7.16v-29.07c0-3.95,3.21-7.16,7.16-7.16c3.96,0,7.16,3.21,7.16,7.16
					v29.07C843.22,777,840.01,780.21,836.05,780.21z"/>
			</g>
		</g>
		<g>
			<g>
				<path class="st4" d="M816.47,799.16H787.4c-3.96,0-7.16-3.21-7.16-7.16c0-3.95,3.21-7.16,7.16-7.16h29.07
					c3.96,0,7.16,3.21,7.16,7.16C823.63,795.96,820.42,799.16,816.47,799.16z"/>
			</g>
		</g>
		<g>
			<g>
				<path class="st4" d="M835.42,847.82c-3.96,0-7.16-3.21-7.16-7.16v-29.07c0-3.95,3.21-7.16,7.16-7.16s7.16,3.21,7.16,7.16v29.07
					C842.58,844.61,839.38,847.82,835.42,847.82z"/>
			</g>
		</g>
		<g>
			<g>
				<path class="st4" d="M884.08,799.8h-29.07c-3.96,0-7.16-3.21-7.16-7.16s3.21-7.16,7.16-7.16h29.07c3.96,0,7.16,3.21,7.16,7.16
					S888.03,799.8,884.08,799.8z"/>
			</g>
		</g>
	</g>
</g>
<g>
	<path class="st4" d="M454.09,873.17c-4.72,0.46-9.62-0.88-13.57-4.14c-7.91-6.51-9.04-18.18-2.53-26.08
		c14.49-17.61,11.95-43.73-5.65-58.22c-33.4-27.49-38.21-77.01-10.72-110.41c6.51-7.91,18.18-9.04,26.08-2.53
		c7.91,6.51,9.04,18.18,2.53,26.08c-14.49,17.61-11.95,43.75,5.66,58.24c33.4,27.47,38.21,77.01,10.72,110.39
		C463.35,870.45,458.81,872.71,454.09,873.17z"/>
	<path class="st33" d="M414.51,622.41L414.51,622.41L414.51,622.41L414.51,622.41L414.51,622.41l-0.01,0v0
		c-36.99,10.27-61.87,42.71-64.24,78.97c-1.04,15.91,16.38,25.95,29.48,16.86c0.17-0.11,0.33-0.23,0.49-0.34
		c8.97-6.31,21.2-3.71,26.83,5.69c0.09,0.15,0.18,0.31,0.28,0.46c8.24,13.56,28.28,11.62,33.75-3.28c0.06-0.17,0.12-0.33,0.18-0.5
		c3.72-10.31,15.22-15.21,25.23-10.75c0.18,0.08,0.36,0.16,0.55,0.24c14.61,6.39,29.77-6.8,25.69-22.22
		C483.44,652.41,452.79,625.36,414.51,622.41z"/>
	<path class="st5" d="M485.06,90.7c-23.83,2.31-45.98,9.51-65.6,20.49c-32.75,18.32-72.54,22.19-108.2,10.51
		c-21.37-7-44.49-9.8-68.31-7.48C150.44,123.2,82.72,205.49,91.7,298.01s200.14,356.06,324.7,343.96
		c124.56-12.1,261.43-307.5,252.45-400.02C659.87,149.44,577.58,81.72,485.06,90.7z"/>
	<path class="st4" d="M160.81,308.32c-9.32,0.9-17.6-5.91-18.51-15.23c-6.26-64.47,41.09-122.01,105.56-128.27
		c9.31-0.9,17.6,5.91,18.51,15.23c0.91,9.32-5.91,17.6-15.23,18.51c-45.87,4.45-79.55,45.39-75.1,91.26
		C176.95,299.14,170.13,307.42,160.81,308.32z"/>
	<path class="st4" d="M668.85,241.95c-3.97-40.87-22.28-76.86-49.42-103.58c-14.42-7.5-29.66-13.39-45.8-17.15
		c-14.47-3.33-29.27-5.03-44.01-5.03c-91.06,0-169,62.04-189.54,150.85C324.6,334,367.63,519.22,444.98,634.33
		C560.95,585.92,677.15,327.43,668.85,241.95z"/>
	<path class="st4" d="M526.09,933.62c-4.62-1.07-8.83-3.9-11.54-8.24c-5.42-8.68-2.78-20.11,5.91-25.53
		c19.35-12.08,25.26-37.64,13.19-56.99c-22.9-36.69-11.69-85.17,25-108.07c8.68-5.42,20.11-2.78,25.53,5.91
		c5.42,8.68,2.78,20.11-5.91,25.53c-19.34,12.08-25.26,37.66-13.19,57.01c22.91,36.68,11.69,85.17-25,108.05
		C535.74,933.99,530.71,934.69,526.09,933.62z"/>
	<path class="st34" d="M568.45,683.31L568.45,683.31L568.45,683.31L568.45,683.31L568.45,683.31l-0.01-0.01l0,0
		c-38.34-2.05-72.25,20.78-86.04,54.39c-6.06,14.75,7.26,29.81,22.58,25.38c0.19-0.06,0.38-0.11,0.57-0.17
		c10.51-3.12,21.28,3.23,23.62,13.94c0.04,0.17,0.08,0.35,0.12,0.52c3.49,15.48,23.1,20.02,33.03,7.64
		c0.11-0.14,0.22-0.28,0.33-0.42c6.81-8.59,19.28-9.57,27.34-2.15c0.15,0.14,0.29,0.27,0.44,0.4c11.81,10.71,30.39,3.03,31.43-12.88
		C624.23,733.71,603.79,698.31,568.45,683.31z"/>
	<path class="st32" d="M804.69,201.78c-23.32-5.4-46.61-5.63-68.71-1.48c-36.88,6.94-75.82-2.07-105.91-24.5
		c-18.03-13.44-39.05-23.46-62.37-28.86c-90.56-20.95-180.96,35.48-201.92,126.04c-20.95,90.56,76.3,401.27,198.23,429.48
		c121.92,28.21,345.76-208.21,366.72-298.77C951.68,313.13,895.25,222.73,804.69,201.78z"/>
	<path class="st4" d="M428.01,304.78c-9.12-2.11-14.8-11.2-12.69-20.33c14.6-63.11,77.82-102.57,140.92-87.97
		c9.12,2.11,14.8,11.2,12.69,20.33c-2.11,9.13-11.21,14.8-20.33,12.69c-44.9-10.39-89.87,17.68-100.25,62.59
		C446.23,301.21,437.13,306.89,428.01,304.78z"/>
</g>
</svg>
